<?xml version="1.0" standalone="no"?>
<!DOCTYPE svg PUBLIC "-//W3C//DTD SVG 20010904//EN"
 "http://www.w3.org/TR/2001/REC-SVG-20010904/DTD/svg10.dtd">
<svg version="1.0" xmlns="http://www.w3.org/2000/svg"
 width="2184.000000pt" height="2184.000000pt" viewBox="0 0 2184.000000 2184.000000"
 preserveAspectRatio="xMidYMid meet">
<metadata>
Created by potrace 1.11, written by Peter Selinger 2001-2013
</metadata>
<g transform="translate(0.000000,2184.000000) scale(0.100000,-0.100000)"
fill="#000000" stroke="none">
<path d="M10305 21819 c-2336 -130 -4550 -999 -6346 -2491 -496 -412 -1035
-951 -1447 -1447 -1502 -1808 -2363 -4013 -2492 -6379 -13 -249 -13 -915 0
-1164 129 -2365 990 -4571 2492 -6379 412 -496 951 -1035 1447 -1447 1809
-1503 4015 -2364 6383 -2492 254 -14 902 -14 1156 0 2368 128 4574 989 6383
2492 496 412 1035 951 1447 1447 1413 1700 2262 3759 2461 5966 32 347 42 586
42 995 0 409 -10 648 -42 995 -199 2207 -1048 4266 -2461 5966 -412 496 -951
1035 -1447 1447 -1807 1501 -4013 2363 -6376 2492 -219 12 -979 11 -1200 -1z
m1270 -759 c941 -69 1711 -218 2530 -487 2154 -708 4031 -2142 5290 -4042 790
-1193 1302 -2485 1540 -3886 102 -601 140 -1070 140 -1725 0 -453 -9 -652 -46
-1020 -184 -1850 -858 -3587 -1962 -5056 -604 -804 -1267 -1467 -2071 -2071
-1276 -959 -2768 -1599 -4351 -1868 -603 -102 -1071 -140 -1730 -140 -457 0
-635 8 -1015 46 -2833 279 -5395 1728 -7127 4033 -970 1292 -1614 2803 -1877
4406 -97 592 -131 1026 -131 1675 1 447 7 596 41 965 81 879 285 1769 595
2598 748 1995 2126 3725 3908 4907 390 258 663 416 1078 623 1213 607 2550
964 3898 1042 105 6 217 12 250 14 116 7 902 -3 1040 -14z"/>
<path d="M10322 20380 c-240 -64 -329 -208 -339 -548 -10 -308 42 -623 132
-808 87 -179 258 -264 469 -235 236 33 345 160 403 465 23 120 26 603 4 711
-45 226 -129 348 -278 406 -84 32 -287 37 -391 9z m323 -140 c90 -44 141 -133
172 -304 24 -128 24 -561 0 -693 -31 -171 -76 -251 -164 -295 -67 -32 -208
-33 -268 -1 -135 72 -194 242 -226 648 -29 381 28 588 178 646 91 35 235 35
308 -1z"/>
<path d="M11476 20338 c-3 -12 -26 -362 -52 -776 -40 -643 -45 -755 -33 -763
19 -12 129 -11 129 1 0 5 16 195 35 422 18 227 42 519 51 648 9 129 20 239 24
243 18 20 276 -816 371 -1205 l43 -177 66 -10 c36 -6 78 -12 95 -13 l30 -3
131 765 c72 421 128 768 125 772 -10 12 -152 31 -161 21 -8 -8 -82 -489 -150
-968 -22 -154 -42 -296 -46 -315 -5 -30 -16 1 -70 200 -153 560 -343 1156
-372 1164 -9 2 -61 7 -114 11 -96 7 -97 7 -102 -17z"/>
<path d="M8980 20200 c-120 -23 -309 -66 -315 -72 -2 -2 40 -195 94 -429 55
-233 134 -575 177 -759 42 -184 78 -336 78 -337 2 -3 139 36 143 41 3 3 -25
146 -61 318 -37 172 -66 316 -66 320 0 7 165 48 193 48 20 0 193 -268 391
-607 4 -6 156 22 156 28 0 12 -218 382 -296 501 -95 146 -92 132 -34 167 69
42 129 106 157 168 74 161 40 380 -80 510 -105 114 -292 150 -537 103z m276
-135 c130 -38 198 -149 198 -322 -1 -123 -67 -221 -185 -271 -50 -22 -257 -68
-265 -59 -3 3 -27 108 -54 234 -27 126 -57 266 -68 311 l-19 81 51 11 c120 24
145 28 217 29 41 1 98 -6 125 -14z"/>
<path d="M7983 19949 c-169 -52 -490 -162 -564 -193 l-26 -11 272 -713 c150
-392 276 -721 281 -731 8 -18 21 -15 182 45 95 36 251 88 345 116 95 28 173
52 175 53 7 6 -32 125 -41 125 -17 0 -145 -39 -350 -107 -109 -36 -200 -63
-203 -61 -4 5 -191 514 -201 549 -4 14 35 30 214 89 120 40 220 74 222 76 5 4
-18 96 -28 113 -9 15 -80 -4 -319 -86 -74 -25 -137 -41 -142 -37 -9 10 -180
486 -180 502 0 16 300 119 519 178 53 15 98 28 100 30 2 2 -4 31 -14 64 -13
41 -23 60 -34 59 -9 0 -103 -27 -208 -60z"/>
<path d="M13606 19930 c-17 -61 -15 -80 8 -80 7 0 98 -27 200 -61 122 -39 186
-64 183 -72 -2 -7 -106 -304 -230 -662 -124 -357 -228 -657 -232 -666 -5 -13
9 -21 67 -42 40 -14 76 -23 79 -19 3 4 115 304 248 667 133 363 244 661 246
663 5 5 183 -61 317 -117 67 -28 95 -36 100 -27 4 6 16 35 27 62 l20 51 -222
88 c-167 66 -767 275 -791 275 -2 0 -11 -27 -20 -60z"/>
<path d="M6771 19477 l-114 -51 7 -96 c14 -200 74 -681 113 -909 5 -33 0 -29
-92 67 -142 148 -642 592 -666 592 -5 0 -56 -28 -114 -62 -74 -44 -105 -68
-102 -78 2 -9 109 -186 237 -395 128 -209 308 -502 399 -652 91 -150 169 -273
173 -273 11 0 117 74 118 83 0 8 -353 607 -562 950 -76 126 -138 231 -138 234
0 14 394 -342 588 -531 l173 -170 65 32 c42 21 64 38 64 49 0 10 -15 124 -34
253 -19 129 -44 334 -55 455 -12 121 -24 242 -27 270 -3 27 -3 47 -1 45 3 -3
90 -189 194 -415 325 -701 388 -834 396 -835 16 0 137 55 137 63 0 11 -628
1409 -637 1418 -5 4 -59 -16 -122 -44z"/>
<path d="M15010 19375 c-76 -22 -132 -57 -202 -127 -176 -176 -383 -624 -419
-909 -14 -104 -1 -197 37 -276 51 -106 203 -212 358 -250 161 -39 326 38 483
225 141 170 321 481 379 657 71 219 27 403 -127 525 -163 129 -373 193 -509
155z m302 -188 c256 -123 260 -318 18 -745 -202 -355 -339 -492 -490 -492
-111 0 -263 104 -289 196 -36 131 24 348 180 654 201 396 353 497 581 387z"/>
<path d="M15830 18088 c-272 -406 -430 -652 -422 -655 7 -3 72 -47 145 -99
264 -188 335 -219 482 -212 170 9 286 77 500 292 164 166 229 262 283 419 77
224 46 419 -90 572 -51 57 -399 312 -450 330 -8 3 -179 -245 -448 -647z m626
360 c114 -81 186 -155 221 -226 24 -49 28 -69 27 -137 0 -55 -7 -98 -22 -139
-73 -201 -375 -565 -536 -646 -61 -31 -78 -35 -146 -35 -68 0 -84 4 -151 37
-100 51 -242 156 -235 175 3 8 122 179 264 381 142 202 305 434 361 515 61 87
109 146 116 143 7 -2 52 -33 101 -68z"/>
<path d="M4968 18397 c-59 -45 -107 -87 -108 -92 0 -12 149 -367 242 -575 162
-362 416 -882 433 -887 6 -1 35 20 65 47 l55 49 -92 185 c-51 103 -93 188 -93
190 0 6 212 174 309 244 64 47 87 59 100 52 9 -5 79 -66 156 -135 77 -68 145
-125 150 -125 13 0 125 80 125 89 0 16 -486 443 -766 672 -137 113 -461 369
-466 369 -2 0 -51 -37 -110 -83z m262 -246 c94 -73 254 -203 356 -288 l186
-155 -64 -46 c-34 -25 -114 -86 -176 -135 -62 -49 -115 -88 -117 -85 -11 10
-313 690 -373 837 -10 24 14 8 188 -128z"/>
<path d="M17458 17762 c-7 -11 -224 -246 -483 -523 -258 -277 -490 -526 -515
-552 l-45 -49 161 -158 c215 -212 313 -273 459 -287 133 -12 312 57 505 194
396 283 533 626 373 937 -31 60 -66 101 -230 264 -106 105 -197 192 -202 192
-6 0 -16 -8 -23 -18z m183 -329 c125 -130 176 -217 186 -316 12 -137 -46 -245
-237 -438 -151 -153 -269 -245 -380 -298 -67 -32 -84 -35 -160 -35 -78 -1 -90
2 -150 34 -41 22 -103 72 -169 136 l-105 101 449 461 c247 254 452 462 456
462 3 0 53 -48 110 -107z"/>
<path d="M4110 17622 c-121 -40 -277 -173 -353 -303 -136 -232 -91 -432 158
-697 144 -153 365 -323 520 -398 238 -116 397 -93 576 85 178 178 209 334 105
540 -57 115 -55 112 -90 94 -17 -9 -48 -27 -68 -39 l-37 -24 46 -90 c61 -117
69 -192 29 -274 -32 -65 -112 -148 -172 -177 -37 -17 -58 -20 -122 -17 -65 3
-89 9 -152 41 -172 85 -481 349 -608 517 -135 180 -129 330 18 479 79 80 147
115 225 115 66 1 105 -12 180 -59 28 -17 55 -34 62 -38 10 -7 103 110 103 130
-1 14 -84 71 -146 100 -78 35 -193 42 -274 15z"/>
<path d="M9626 17169 c-692 -46 -1431 -365 -2221 -959 -1055 -793 -1997 -1941
-2659 -3245 -327 -642 -550 -1313 -631 -1895 -22 -155 -31 -566 -16 -701 79
-695 434 -1157 1071 -1392 264 -98 577 -147 943 -147 371 0 690 61 1197 229
521 173 873 334 1237 563 51 32 97 58 103 58 7 0 37 19 68 43 31 24 95 69 142
102 47 32 162 115 255 185 610 456 1513 1013 2085 1288 321 154 544 236 1045
387 795 238 1480 351 2595 427 245 17 801 16 950 0 259 -30 406 -76 470 -149
60 -68 43 -117 -170 -498 -85 -152 -110 -220 -110 -294 0 -155 83 -274 245
-351 112 -53 173 -64 360 -64 157 0 177 2 258 27 109 34 167 63 281 140 260
178 473 463 584 786 36 104 37 109 36 251 -1 123 -5 160 -27 243 -49 183 -141
348 -271 485 -385 405 -1134 622 -2146 622 -1290 -1 -2786 -248 -4050 -669
-348 -116 -563 -200 -830 -324 -107 -49 -252 -116 -322 -148 -125 -57 -417
-225 -593 -343 -49 -33 -202 -141 -340 -241 -756 -549 -1184 -834 -1509 -1005
-270 -143 -740 -329 -981 -389 -132 -33 -229 -41 -367 -30 -291 22 -455 107
-566 294 -177 301 -146 767 99 1438 449 1233 1611 2844 2659 3687 257 206 606
409 791 460 56 15 121 25 194 27 133 5 166 -7 205 -77 22 -39 25 -57 25 -140
0 -70 -6 -114 -23 -168 -74 -236 -246 -531 -466 -800 -178 -216 -206 -255
-251 -347 -53 -108 -68 -173 -63 -268 5 -91 38 -165 102 -230 90 -90 211 -139
391 -157 242 -25 446 31 667 182 380 260 712 785 907 1434 213 707 58 1253
-429 1517 -218 118 -579 179 -924 156z"/>
<path d="M3360 15573 c-271 -440 -523 -943 -707 -1413 -672 -1717 -792 -3617
-342 -5413 532 -2126 1849 -3986 3693 -5219 l209 -139 33 32 c19 18 31 36 27
39 -5 4 -96 65 -203 136 -487 322 -935 689 -1360 1114 -760 760 -1364 1633
-1806 2607 -788 1740 -981 3727 -544 5606 207 888 583 1803 1051 2559 44 69
79 130 79 134 0 16 -33 94 -39 94 -4 0 -45 -62 -91 -137z"/>
<path d="M18366 15667 c-9 -23 -16 -46 -16 -50 0 -4 47 -84 104 -179 690
-1149 1104 -2416 1220 -3738 154 -1740 -206 -3465 -1041 -4988 -530 -969
-1243 -1833 -2103 -2552 -195 -163 -535 -415 -760 -564 -107 -71 -198 -132
-203 -136 -4 -3 8 -21 27 -39 l33 -32 211 140 c862 576 1615 1294 2241 2141
1618 2186 2131 5055 1376 7696 -221 771 -552 1521 -975 2207 -46 75 -87 137
-91 137 -3 0 -14 -19 -23 -43z"/>
<path d="M13547 11820 c-166 -65 -457 -397 -864 -985 -616 -891 -1559 -2552
-2449 -4310 -364 -720 -541 -1090 -565 -1182 -30 -115 -30 -267 -1 -355 41
-119 116 -204 231 -263 243 -122 610 -63 932 151 103 69 284 250 352 354 109
168 284 497 651 1230 206 410 408 817 449 905 113 241 354 739 673 1388 158
320 376 768 486 996 109 227 302 624 428 882 126 257 239 496 250 529 100 297
-63 610 -348 669 -79 16 -170 13 -225 -9z"/>
<path d="M8082 3538 c-11 -24 -159 -339 -331 -701 -171 -362 -311 -662 -311
-667 0 -5 21 -19 48 -31 116 -53 323 -138 382 -157 200 -66 359 -40 486 80 99
94 163 208 239 429 116 338 135 557 61 723 -28 63 -100 144 -166 186 -39 25
-192 97 -377 176 -6 3 -20 -13 -31 -38z m195 -184 c191 -79 260 -161 270 -323
6 -96 -21 -234 -83 -421 -89 -266 -184 -424 -293 -488 -41 -24 -56 -27 -141
-27 -92 0 -99 2 -228 54 -73 30 -135 58 -138 62 -6 10 508 1178 518 1179 4 0
47 -16 95 -36z"/>
<path d="M13548 3547 l-47 -22 180 -405 c99 -223 221 -494 270 -604 50 -109
88 -200 86 -202 -13 -13 -699 693 -944 970 l-51 58 -84 -28 c-46 -15 -84 -28
-86 -30 -3 -2 266 -838 409 -1271 39 -117 76 -213 82 -213 28 0 147 45 144 55
-11 26 -322 919 -374 1073 -33 94 -57 172 -54 171 3 0 21 -19 39 -42 143 -179
590 -646 845 -881 l118 -109 100 45 c55 25 101 49 101 54 1 5 -147 323 -328
706 -225 477 -334 697 -344 697 -8 0 -36 -10 -62 -22z"/>
<path d="M9195 3177 c-3 -7 -86 -318 -185 -692 -100 -374 -189 -710 -199 -747
l-18 -67 31 -10 c169 -54 766 -175 782 -158 6 5 25 120 21 124 -2 1 -88 18
-193 37 -173 32 -312 61 -405 86 l-36 10 71 289 c39 159 73 292 76 295 3 3 62
-8 130 -24 134 -31 302 -62 307 -56 9 9 23 120 16 126 -4 4 -39 12 -78 19 -38
7 -132 26 -208 43 -113 26 -136 34 -133 47 3 9 33 129 67 266 34 138 63 251
64 253 1 1 62 -11 136 -27 155 -35 378 -75 383 -70 2 2 8 32 13 66 l10 63 -36
6 c-96 16 -437 87 -519 108 -67 17 -95 21 -97 13z"/>
<path d="M12105 3110 c-263 -47 -365 -202 -365 -552 0 -289 60 -616 146 -796
48 -99 134 -190 216 -228 54 -24 75 -28 153 -28 188 0 354 86 419 216 l25 50
10 -39 c5 -21 13 -55 17 -76 5 -33 10 -38 28 -34 11 3 47 11 79 18 l59 13 -6
35 c-6 41 -174 679 -181 691 -2 4 -58 -5 -122 -20 -65 -16 -158 -36 -208 -46
-49 -9 -94 -20 -98 -24 -5 -4 -4 -33 3 -64 8 -41 16 -56 28 -56 9 0 76 13 149
28 l132 29 30 -130 c35 -147 37 -173 16 -244 -30 -102 -135 -181 -272 -204
-155 -25 -255 36 -333 205 -67 143 -125 432 -137 686 -9 202 16 300 95 372 51
46 100 62 187 63 59 0 78 -4 116 -27 50 -30 106 -103 135 -179 9 -24 20 -48
24 -52 8 -9 130 48 130 60 0 4 -20 48 -44 98 -92 189 -240 269 -431 235z"/>
<path d="M10330 2995 c-119 -27 -211 -115 -244 -235 -36 -133 -29 -228 24
-337 41 -82 118 -159 270 -268 225 -161 285 -242 285 -385 -1 -176 -113 -264
-310 -246 -162 15 -264 110 -265 245 0 50 -1 53 -22 48 -13 -3 -49 -9 -82 -13
l-59 -7 6 -70 c10 -121 78 -222 187 -277 105 -53 295 -76 422 -49 120 25 216
98 259 194 47 106 40 259 -16 372 -47 96 -127 175 -296 296 -225 159 -273 222
-274 357 0 103 36 178 103 218 41 23 58 27 128 27 72 0 86 -3 129 -30 59 -37
91 -93 107 -188 9 -54 14 -66 27 -63 9 3 37 10 64 17 26 6 49 14 51 18 2 3 0
33 -5 66 -22 139 -113 255 -232 294 -85 28 -178 34 -257 16z"/>
<path d="M11197 2973 l-29 -5 6 -66 c3 -37 20 -373 36 -747 17 -374 33 -695
36 -712 l5 -33 84 0 c46 0 86 3 88 8 2 4 -4 120 -14 257 -10 138 -34 484 -54
769 -20 285 -38 523 -41 528 -5 8 -65 9 -117 1z"/>
</g>
</svg>
